# xmcd
#
# Track frame offsets: 
#        150
#        8406
#        21649
#        35732
#        49057
#        66013
#        89988
#        109359
#        125960
#        142569
#        157791
#        173808
#        186435
#
# Disc length: 2656 seconds
#
# Revision: 0
# Processed by: cddbd v1.5.2PL0 Copyright (c) Steve Scherf et al.
# Submitted via: ExactAudioCopyFreeDBPlugin 1.0
#
DISCID=b50a5e0d
DTITLE=Anaïs - A l'eau de javel
DYEAR=2012
DGENRE=Pop
TTITLE0=Unknown Artist - Intro:Pendabnt ce temps là aux auditions
TTITLE1=Unknown Artist - S j'étais une cigarette
TTITLE2=Unknown Artist - Mon dieu
TTITLE3=Unknown Artist - Je n'embrasse pas les garçons
TTITLE4=Unknown Artist - Sombreros et mantilles
TTITLE5=Unknown Artist - Le tango stupéfiant
TTITLE6=Unknown Artist - en douce
TTITLE7=Unknown Artist - Mon anisette
TTITLE8=Unknown Artist - Et le reste
TTITLE9=Unknown Artist - Merci mon ami
TTITLE10=Unknown Artist - Ouragan
TTITLE11=Unknown Artist - Le petit cochon en pain d'épice
TTITLE12=Unknown Artist - Danseuse privée
EXTD=
EXTT0=
EXTT1=
EXTT2=
EXTT3=
EXTT4=
EXTT5=
EXTT6=
EXTT7=
EXTT8=
EXTT9=
EXTT10=
EXTT11=
EXTT12=
PLAYORDER=
